<svg width="265" height="262" viewBox="0 0 265 262" fill="none" xmlns="http://www.w3.org/2000/svg">
    <g clip-path="url(#clip0_202_231)">
        <path
            d="M0.686096 0.556152C10.1223 6.88641 19.6395 13.0994 28.9797 19.5683C60.4235 41.3458 91.7984 63.2227 123.219 85.0342C126.181 87.0904 129.276 88.9546 132.651 91.4579C132.995 145.529 132.979 199.049 133.081 252.57C133.084 254.377 134.278 256.181 134.917 257.987C134.161 258.966 133.406 259.945 131.926 261.864C127.756 253.275 123.986 245.511 120.117 237.046C119.65 236.241 119.283 236.138 118.915 236.034C118.915 236.034 118.99 236.004 119.27 235.724C119.003 234.965 118.455 234.486 117.908 234.008C117.908 234.008 117.98 234.008 118.241 233.718C117.97 232.953 117.439 232.479 116.908 232.004C116.908 232.004 116.98 232.009 117.205 231.705C116.923 230.935 116.415 230.469 115.908 230.004C115.908 230.004 115.981 230.01 116.183 229.699C115.893 228.926 115.401 228.464 114.908 228.003C114.908 228.003 114.981 228.01 115.175 227.699C114.882 226.925 114.395 226.462 113.908 226C113.908 226 113.983 226.009 114.157 225.695C113.856 224.919 113.382 224.459 112.909 223.998C112.909 223.998 112.987 224.007 113.141 223.691C112.833 222.915 112.371 222.456 111.909 221.997C111.909 221.997 111.989 222.006 112.133 221.69C111.821 220.914 111.365 220.454 110.909 219.995C110.909 219.995 110.994 220.004 111.116 219.646C110.711 218.837 110.183 218.385 109.655 217.933C109.402 217.482 109.148 217.031 108.958 216.042C107.131 211.48 105.24 207.455 103.35 203.43C101.639 200.536 99.9277 197.643 98.1174 194.046C97.6502 193.24 97.2824 193.137 96.9146 193.034C96.9146 193.034 96.9902 193.003 97.284 192.731C97.0209 191.975 96.4641 191.491 95.9072 191.006C95.9072 191.006 95.98 191.008 96.2405 190.715C95.9699 189.951 95.4387 189.478 94.9075 189.006C94.9075 189.006 94.98 189.009 95.2172 188.707C94.9388 187.939 94.4233 187.472 93.9078 187.005C93.9078 187.005 93.9802 187.01 94.204 186.706C93.9212 185.936 93.4146 185.469 92.9079 185.002C92.9079 185.002 92.9808 185.01 93.1768 184.699C92.8845 183.925 92.3963 183.462 91.9081 183C91.9081 183 91.9835 183.009 92.158 182.694C91.8578 181.919 91.383 181.459 90.9082 180.999C90.9082 180.999 90.9854 181.008 91.1478 180.692C90.843 179.916 90.3757 179.457 89.9084 178.997C89.9084 178.997 89.9873 179.007 90.141 178.692C89.8327 177.917 89.3707 177.456 88.9086 176.994C88.9086 176.994 88.9939 177.003 89.1184 176.646C88.7155 175.838 88.188 175.387 87.6606 174.936C87.4079 174.499 87.1552 174.063 86.9916 173.091C85.1721 168.517 83.2636 164.479 81.3551 160.44C79.309 156.876 77.2628 153.312 75.1173 149.046C74.6502 148.241 74.2825 148.137 73.9148 148.034C73.9148 148.034 73.9894 148.005 74.2664 147.722C73.998 146.962 73.4528 146.485 72.9076 146.008C72.9076 146.008 72.9805 146.008 73.2406 145.718C72.9698 144.953 72.4388 144.479 71.9078 144.004C71.9078 144.004 71.9802 144.009 72.2064 143.706C71.9245 142.936 71.4163 142.469 70.908 142.003C70.908 142.003 70.9809 142.01 71.1794 141.698C70.888 140.924 70.3981 140.463 69.9083 140.002C69.9083 140.002 69.9814 140.01 70.1692 139.697C69.8741 138.922 69.3912 138.461 68.9084 138C68.9084 138 68.9833 138.009 69.1564 137.695C68.8558 136.919 68.3821 136.459 67.9085 135.998C67.9085 135.998 67.9866 136.007 68.1426 135.692C67.8353 134.916 67.372 134.456 66.9087 133.996C66.9087 133.996 66.9897 134.006 67.1296 133.689C66.8159 132.913 66.3624 132.454 65.9089 131.995C65.9089 131.995 65.994 132.003 66.1149 131.647C65.7093 130.838 65.1827 130.386 64.6562 129.935C64.4036 129.487 64.151 129.04 63.9659 128.055C62.139 123.488 60.2444 119.459 58.35 115.43C56.6389 112.536 54.9279 109.642 53.1174 106.046C52.6502 105.24 52.2824 105.137 51.9146 105.034C51.9146 105.034 51.9902 105.003 52.2837 104.731C52.0206 103.975 51.4639 103.491 50.9072 103.006C50.9072 103.006 50.9799 103.008 51.2411 102.717C50.9706 101.952 50.439 101.479 49.9075 101.005C49.9075 101.005 49.9799 101.009 50.2098 100.705C49.9291 99.9353 49.4185 99.4701 48.908 99.0049C48.908 99.0049 48.9804 99.0098 49.1984 98.7039C48.9135 97.9327 48.4107 97.4674 47.9079 97.0021C47.9079 97.0021 47.9808 97.0103 48.1765 96.6992C47.8842 95.9254 47.3962 95.4625 46.9081 94.9996C46.9081 94.9996 46.9837 95.009 47.1567 94.694C46.8559 93.9187 46.382 93.4585 45.9082 92.9983C45.9082 92.9983 45.9863 93.0077 46.1445 92.6908C45.8381 91.9151 45.3732 91.4563 44.9084 90.9975C44.9084 90.9975 44.9872 91.007 45.141 90.6925C44.8328 89.9167 44.3707 89.4555 43.9086 88.9942C43.9086 88.9942 43.994 89.0032 44.1174 88.6468C43.7133 87.8381 43.1859 87.3857 42.6585 86.9333C42.4049 86.4922 42.1512 86.0511 41.9804 85.0744C40.1605 80.506 38.2578 76.4732 36.3552 72.4405C34.3094 68.8766 32.2637 65.3127 30.1181 61.0473C29.6506 60.2416 29.2828 60.1375 28.915 60.0333C28.915 60.0333 28.9888 60.0056 29.2533 59.7151C28.9811 58.953 28.4445 58.4814 27.908 58.0097C27.908 58.0097 27.981 58.0076 28.2415 57.7176C27.9706 56.9534 27.4393 56.4792 26.908 56.005C26.908 56.0049 26.9803 56.0092 27.2067 55.7061C26.9247 54.9364 26.4164 54.4698 25.9082 54.0033C25.9082 54.0033 25.981 54.0102 26.1786 53.6979C25.887 52.9246 25.3976 52.4636 24.9083 52.0026C24.9083 52.0026 24.9814 52.0106 25.1653 51.6956C24.869 50.9208 24.3888 50.4608 23.9086 50.0009C23.9086 50.0009 23.9828 50.0098 24.1564 49.695C23.8561 48.9196 23.3824 48.459 22.9087 47.9983C22.9087 47.9983 22.9863 48.0077 23.1426 47.6922C22.8354 46.9165 22.3721 46.4563 21.9088 45.996C21.9088 45.996 21.9894 46.0057 22.1304 45.6895C21.8173 44.9137 21.3632 44.4541 20.9091 43.9945C20.9091 43.9945 20.9942 44.0032 21.1128 43.6457C20.7057 42.8369 20.1799 42.3856 19.6542 41.9343C19.4018 41.4865 19.1494 41.0388 18.9661 40.0558C17.4708 36.1512 15.9064 32.7819 14.3421 29.4126C12.3005 25.8581 10.2589 22.3036 8.11926 18.047C7.6524 17.2416 7.28375 17.1383 6.91504 17.0349C6.91504 17.0349 6.99078 17.0026 7.2843 16.7312C7.02112 15.9758 6.46435 15.4916 5.90759 15.0074C5.90759 15.0074 5.98041 15.0075 6.24249 14.717C5.97235 13.953 5.44012 13.4794 4.90796 13.0058C4.90796 13.0058 4.98029 13.0092 5.20972 12.7052C4.92889 11.9359 4.41858 11.4706 3.9082 11.0053C3.9082 11.0054 3.98065 11.0099 4.19287 10.7014C3.90613 9.92978 3.40723 9.46674 2.90833 9.00369C2.90833 9.00366 2.98114 9.01022 3.17761 8.69943C2.8855 7.92593 2.39703 7.46323 1.90851 7.00055C1.90851 7.00055 1.98285 7.00967 2.15723 6.69443C1.8573 5.91916 1.38294 5.45917 0.908569 4.99918C0.908569 4.99918 0.985596 5.00827 1.14441 4.69144C0.838379 3.91571 0.373535 3.45685 -0.0913086 2.99796C-0.0913086 2.99796 -0.0195314 3.00705 0.181519 2.75876C0.483765 1.85904 0.584961 1.20758 0.686096 0.556152Z"
            fill="#029845" />
        <path
            d="M135.069 257.671C134.278 256.181 133.084 254.377 133.081 252.57C132.979 199.049 132.995 145.529 133 91.5455C141.302 85.5651 149.669 80.1514 157.874 74.5038C169.215 66.6985 180.412 58.6835 191.711 50.8177C214.578 34.8997 237.469 19.0173 260.364 3.14011C261.551 2.31766 262.865 1.6803 265.269 0.293945C264.713 2.81464 264.402 4.22522 263.614 6.05869C262.767 7.3457 262.397 8.20975 262.027 9.07379C262.027 9.07379 262.01 8.99982 261.687 9.04141C261.25 9.74811 261.135 10.4132 261.02 11.0783C261.02 11.0783 261.006 10.9997 260.681 11.0357C260.245 11.7404 260.134 12.4092 260.023 13.0779C260.023 13.0779 260.009 13.0013 259.677 13.0317C259.241 13.734 259.135 14.4059 259.029 15.0778C259.029 15.0778 259.014 15.0059 258.672 15.0144C258.232 15.7079 258.133 16.3931 258.034 17.0782C258.034 17.0782 258.016 17.0084 257.666 16.9962C257.223 17.682 257.129 18.38 257.035 19.078C257.035 19.078 257.016 19.0089 256.662 18.99C256.218 19.673 256.128 20.375 256.037 21.077C256.037 21.077 256.016 21.0088 255.66 20.9863C255.215 21.6679 255.127 22.372 255.039 23.076C255.039 23.076 255.016 23.0086 254.656 22.9798C254.212 23.6592 254.127 24.3674 254.041 25.0756C254.041 25.0756 254.016 25.0088 253.654 24.9761C253.209 25.6539 253.126 26.3644 253.043 27.075C253.043 27.075 253.016 27.0087 252.651 26.9746C252.206 27.6514 252.126 28.3624 252.045 29.0733C252.045 29.0733 252.016 29.0081 251.648 28.9677C251.203 29.6424 251.124 30.3575 251.046 31.0725C251.046 31.0725 251.01 31.007 250.708 30.8773C250.291 31.1898 250.176 31.6318 250.062 32.0738C247.403 37.6083 244.744 43.1428 241.774 49.1182C241.382 49.8236 241.206 49.9835 240.935 50.0389C240.935 50.0389 240.974 49.9517 240.671 50.0363C240.252 50.773 240.135 51.4252 240.018 52.0773C240.018 52.0773 240.002 51.9966 239.685 52.0467C239.252 52.7568 239.136 53.417 239.02 54.0771C239.02 54.0771 239.005 53.9986 238.682 54.0424C238.248 54.7499 238.136 55.4136 238.025 56.0773C238.025 56.0773 238.01 56.0023 237.678 56.0306C237.241 56.7319 237.135 57.4049 237.029 58.0778C237.029 58.0778 237.014 58.0063 236.674 58.0145C236.232 58.7077 236.13 59.3926 236.029 60.0776C236.029 60.0776 236.014 60.0062 235.67 60.0128C235.229 60.7052 235.132 61.3911 235.036 62.077C235.036 62.077 235.016 62.0083 234.663 61.9956C234.22 62.6806 234.13 63.3784 234.039 64.0761C234.039 64.0761 234.016 64.0087 233.661 63.984C233.216 64.665 233.127 65.3706 233.039 66.0763C233.039 66.0763 233.016 66.0089 232.658 65.982C232.213 66.6618 232.127 67.3686 232.04 68.0753C232.04 68.0753 232.016 68.0085 231.655 67.9795C231.21 68.6584 231.127 69.3662 231.044 70.0741C231.044 70.0741 231.016 70.0084 230.652 69.9745C230.207 70.6514 230.126 71.3622 230.046 72.073C230.046 72.073 230.015 72.0081 229.649 71.9664C229.204 72.6407 229.125 73.3567 229.046 74.0727C229.046 74.0727 229.01 74.0072 228.707 73.8828C228.29 74.1978 228.175 74.6372 228.06 75.0766C225.068 81.2737 222.077 87.4709 218.611 94.0749C217.767 95.3457 217.397 96.2097 217.028 97.0736C217.028 97.0737 217.01 96.9999 216.687 97.0414C216.249 97.748 216.135 98.4131 216.021 99.0782C216.021 99.0782 216.007 99.0002 215.681 99.0341C215.244 99.7381 215.134 100.408 215.023 101.078C215.023 101.078 215.009 101.002 214.677 101.029C214.24 101.73 214.134 102.404 214.029 103.078C214.029 103.078 214.014 103.006 213.672 103.015C213.232 103.709 213.133 104.393 213.034 105.078C213.034 105.078 213.016 105.008 212.666 104.996C212.223 105.681 212.129 106.38 212.035 107.078C212.035 107.078 212.016 107.009 211.662 106.989C211.218 107.672 211.128 108.375 211.037 109.077C211.037 109.077 211.016 109.009 210.66 108.986C210.215 109.667 210.127 110.372 210.039 111.076C210.039 111.076 210.016 111.009 209.656 110.981C209.212 111.661 209.127 112.368 209.042 113.075C209.042 113.075 209.016 113.009 208.655 112.975C208.209 113.652 208.126 114.363 208.042 115.075C208.042 115.075 208.016 115.009 207.651 114.973C207.205 115.649 207.125 116.361 207.045 117.074C207.045 117.074 207.016 117.008 206.647 116.968C206.202 117.642 206.124 118.357 206.047 119.072C206.047 119.072 206.01 119.007 205.708 118.876C205.291 119.189 205.176 119.631 205.062 120.074C202.734 124.947 200.406 129.821 197.788 135.163C197.403 135.897 197.214 136.029 196.932 136.027C196.932 136.027 196.973 135.941 196.643 136.104C196.196 137.021 196.078 137.775 195.961 138.529C195.961 138.529 195.949 138.48 195.582 138.553C195.147 139.111 195.079 139.595 195.01 140.08C195.01 140.08 195 139.996 194.683 140.044C194.251 140.753 194.136 141.415 194.02 142.077C194.02 142.077 194.006 141.999 193.682 142.041C193.247 142.747 193.136 143.412 193.026 144.077C193.026 144.077 193.011 144.003 192.678 144.03C192.24 144.731 192.135 145.404 192.03 146.077C192.03 146.077 192.014 146.007 191.673 146.013C191.232 146.706 191.131 147.392 191.031 148.077C191.031 148.077 191.014 148.007 190.668 148.007C190.226 148.697 190.131 149.387 190.037 150.077C190.037 150.077 190.016 150.008 189.663 149.995C189.22 150.679 189.13 151.377 189.04 152.076C189.04 152.076 189.016 152.009 188.659 151.984C188.215 152.664 188.128 153.37 188.041 154.075C188.041 154.075 188.016 154.009 187.657 153.98C187.213 154.659 187.127 155.367 187.042 156.075C187.042 156.075 187.016 156.009 186.654 155.978C186.209 156.656 186.127 157.365 186.045 158.073C186.045 158.073 186.016 158.008 185.651 157.974C185.206 158.651 185.127 159.361 185.047 160.072C185.047 160.072 185.015 160.008 184.648 159.965C184.203 160.639 184.125 161.355 184.047 162.072C184.047 162.072 184.009 162.006 183.706 161.882C183.288 162.197 183.173 162.638 183.058 163.079C180.068 169.27 177.078 175.462 173.612 182.067C172.767 183.346 172.397 184.21 172.028 185.074C172.028 185.074 172.01 185 171.686 185.043C171.249 185.75 171.136 186.414 171.022 187.078C171.022 187.078 171.008 187.001 170.68 187.031C170.242 187.734 170.133 188.406 170.023 189.078C170.023 189.078 170.008 189.001 169.677 189.031C169.241 189.733 169.135 190.405 169.029 191.078C169.029 191.078 169.014 191.006 168.672 191.015C168.232 191.708 168.133 192.393 168.034 193.078C168.033 193.078 168.016 193.008 167.666 192.996C167.223 193.682 167.129 194.38 167.036 195.078C167.036 195.078 167.016 195.009 166.662 194.988C166.218 195.671 166.127 196.374 166.037 197.077C166.037 197.077 166.016 197.009 165.659 196.985C165.215 197.667 165.127 198.371 165.039 199.076C165.039 199.076 165.016 199.009 164.656 198.981C164.212 199.661 164.127 200.368 164.042 201.075C164.042 201.075 164.016 201.009 163.654 200.975C163.209 201.652 163.126 202.363 163.043 203.075C163.043 203.075 163.016 203.009 162.651 202.971C162.205 203.647 162.125 204.36 162.045 205.074C162.045 205.074 162.016 205.008 161.647 204.967C161.201 205.642 161.124 206.357 161.047 207.072C161.047 207.072 161.009 207.007 160.707 206.876C160.291 207.189 160.177 207.631 160.062 208.074C157.404 213.603 154.745 219.132 151.612 225.067C150.766 226.339 150.396 227.207 150.025 228.074C150.025 228.074 150.008 227.999 149.688 228.046C149.252 228.755 149.136 229.416 149.02 230.077C149.02 230.077 149.005 229.998 148.682 230.042C148.248 230.75 148.136 231.414 148.024 232.077C148.024 232.077 148.009 232.002 147.678 232.032C147.241 232.733 147.135 233.405 147.03 234.078C147.03 234.078 147.014 234.006 146.673 234.013C146.232 234.706 146.131 235.392 146.031 236.078C146.031 236.078 146.015 236.008 145.667 236.004C145.225 236.692 145.13 237.385 145.035 238.077C145.035 238.077 145.016 238.008 144.663 237.995C144.22 238.68 144.129 239.378 144.039 240.076C144.039 240.076 144.016 240.009 143.66 239.985C143.215 240.666 143.127 241.371 143.04 242.076C143.04 242.076 143.016 242.009 142.657 241.979C142.213 242.658 142.127 243.367 142.041 244.076C142.041 244.076 142.016 244.009 141.654 243.979C141.21 244.657 141.127 245.366 141.044 246.074C141.044 246.074 141.016 246.009 140.652 245.975C140.207 246.652 140.126 247.362 140.046 248.073C140.046 248.073 140.015 248.008 139.648 247.967C139.203 248.641 139.125 249.357 139.046 250.072C139.046 250.072 139.009 250.007 138.707 249.881C138.29 250.195 138.175 250.635 138.06 251.076C137.113 253.169 136.167 255.262 135.069 257.671Z"
            fill="#01A84D" />
    </g>
    <defs>
        <clipPath id="clip0_202_231">
            <rect width="265" height="262" fill="white" />
        </clipPath>
    </defs>
</svg>